<svg width="24" height="24" viewBox="0 0 24 24" fill="none" xmlns="http://www.w3.org/2000/svg">
<path fill-rule="evenodd" clip-rule="evenodd" d="M2 6.5C2 6.22386 2.22386 6 2.5 6H21.5C21.7761 6 22 6.22386 22 6.5V18.5C22 18.7761 21.7761 19 21.5 19H2.5C2.22386 19 2 18.7761 2 18.5V6.5ZM4.11622 7L12 12.3942L19.8838 7H4.11622ZM21 7.44794L15.1561 11.4464L21 17.2926V7.44794ZM20.2932 18L14.3165 12.0209L12.2823 13.4127C12.1121 13.5291 11.8879 13.5291 11.7177 13.4127L9.68768 12.0237L3.70764 18H20.2932ZM3 17.2934V7.44794L8.84794 11.4492L3 17.2934Z" fill="#222222"/>
</svg>
