<svg width="24" height="24" viewBox="0 0 24 24" fill="none" xmlns="http://www.w3.org/2000/svg">
<path fill-rule="evenodd" clip-rule="evenodd" d="M18 9.05467C18 10.7144 17.0184 12.9677 15.68 15.2096C14.3941 17.3634 12.8901 19.3285 12 20.4335C11.1099 19.3285 9.60586 17.3634 8.32002 15.2096C6.9816 12.9677 6 10.7144 6 9.05467C6 5.70342 8.69361 3 12 3C15.3064 3 18 5.70342 18 9.05467ZM19 9.05467C19 12.9691 14.5258 18.8988 12.7315 21.1194C12.3497 21.5919 11.6503 21.5919 11.2685 21.1194C9.47421 18.8988 5 12.9691 5 9.05467C5 5.15848 8.13401 2 12 2C15.866 2 19 5.15848 19 9.05467ZM14 9C14 10.1046 13.1046 11 12 11C10.8954 11 10 10.1046 10 9C10 7.89543 10.8954 7 12 7C13.1046 7 14 7.89543 14 9ZM15 9C15 10.6569 13.6569 12 12 12C10.3431 12 9 10.6569 9 9C9 7.34315 10.3431 6 12 6C13.6569 6 15 7.34315 15 9Z" fill="#222222"/>
</svg>
