<svg width="24" height="24" viewBox="0 0 24 24" fill="none" xmlns="http://www.w3.org/2000/svg">
<path d="M8.36324 2.70651L10.4861 4.82939C10.8766 5.21991 10.8758 5.8522 10.4852 6.24272L9.40721 7.32075C9.19449 7.53347 9.09327 7.83148 9.19433 8.11481C9.42619 8.76484 10.0841 10.0842 11.9264 11.9265C13.7719 13.7721 15.0675 14.4038 15.7003 14.6186C15.9748 14.7117 16.2598 14.6103 16.4647 14.4054L17.5563 13.3138C17.9468 12.9233 18.5799 12.9232 18.9704 13.3137L21.0922 15.4355C21.4827 15.826 21.4823 16.4588 21.0918 16.8494L19.0866 18.8545C19.0096 18.9316 18.9227 18.9948 18.8199 19.0309C18.061 19.298 14.4792 20.1364 9.09796 14.7549C3.73452 9.39125 4.50767 5.77369 4.76755 4.98883C4.80358 4.88001 4.86997 4.78692 4.95102 4.70587L6.94958 2.7073C7.34011 2.31678 7.97271 2.31599 8.36324 2.70651Z" stroke="black" stroke-linejoin="round"/>
</svg>
